<svg width="120" height="120" viewBox="0 0 120 120" fill="none" xmlns="http://www.w3.org/2000/svg">
<path opacity="0.5" d="M85.716 97.1231C104.652 97.1231 120 81.7777 120 62.8447C120 47.8392 110.358 35.0857 96.93 30.442C95.022 13.318 80.49 0 62.856 0C43.92 0 28.572 15.3455 28.572 34.2784C28.572 38.4668 29.322 42.4732 30.696 46.1881C29.0552 45.8653 27.3875 45.7027 25.716 45.7025C11.514 45.7086 0 57.2177 0 71.4159C0 85.6141 11.514 97.1231 25.716 97.1231H85.716Z" fill="#D2D2D2"/>
<path fill-rule="evenodd" clip-rule="evenodd" d="M60.1805 72.6603C61.0232 73.514 61.4966 74.6711 61.4966 75.8775C61.4966 77.084 61.0232 78.2411 60.1805 79.0947L48.1805 91.2351C47.7686 91.6824 47.2718 92.0412 46.7198 92.29C46.1678 92.5388 45.5719 92.6726 44.9677 92.6834C44.3635 92.6942 43.7633 92.5818 43.203 92.3528C42.6426 92.1238 42.1336 91.783 41.7063 91.3507C41.279 90.9184 40.9421 90.4034 40.7158 89.8365C40.4895 89.2696 40.3783 88.6625 40.389 88.0512C40.3997 87.4399 40.5319 86.837 40.7779 86.2786C41.0238 85.7201 41.3784 85.2175 41.8205 84.8007L53.8205 72.6603C54.6643 71.8078 55.808 71.3289 57.0005 71.3289C58.1931 71.3289 59.3368 71.8078 60.1805 72.6603ZM87.1806 72.6603C88.0233 73.514 88.4966 74.6711 88.4966 75.8775C88.4966 77.084 88.0233 78.2411 87.1806 79.0947L75.1805 91.2351C74.7686 91.6824 74.2718 92.0412 73.7198 92.29C73.1678 92.5388 72.5719 92.6726 71.9677 92.6834C71.3635 92.6942 70.7633 92.5818 70.203 92.3528C69.6426 92.1238 69.1336 91.783 68.7063 91.3507C68.279 90.9184 67.9421 90.4034 67.7158 89.8365C67.4895 89.2696 67.3783 88.6625 67.389 88.0512C67.3997 87.4399 67.5319 86.837 67.7779 86.2786C68.0238 85.7201 68.3784 85.2175 68.8205 84.8007L80.8206 72.6603C81.6643 71.8078 82.808 71.3289 84.0005 71.3289C85.1931 71.3289 86.3368 71.8078 87.1806 72.6603ZM36.1805 93.906C37.0232 94.7596 37.4966 95.9168 37.4966 97.1232C37.4966 98.3297 37.0232 99.4868 36.1805 100.34L24.1805 112.481C23.3275 113.285 22.1992 113.723 21.0334 113.702C19.8676 113.681 18.7553 113.203 17.9308 112.369C17.1063 111.535 16.6341 110.41 16.6135 109.23C16.5929 108.051 17.0257 106.909 17.8205 106.046L29.8205 93.906C30.6643 93.0534 31.808 92.5746 33.0005 92.5746C34.193 92.5746 35.3368 93.0534 36.1805 93.906ZM93.1806 93.906C94.0233 94.7596 94.4966 95.9168 94.4966 97.1232C94.4966 98.3297 94.0233 99.4868 93.1806 100.34L81.1805 112.481C80.7686 112.928 80.2718 113.287 79.7198 113.536C79.1678 113.785 78.5719 113.918 77.9677 113.929C77.3635 113.94 76.7633 113.827 76.203 113.598C75.6426 113.369 75.1336 113.029 74.7063 112.596C74.279 112.164 73.9421 111.649 73.7158 111.082C73.4895 110.515 73.3783 109.908 73.389 109.297C73.3997 108.686 73.5319 108.083 73.7779 107.524C74.0238 106.966 74.3784 106.463 74.8205 106.046L86.8205 93.906C87.6643 93.0534 88.808 92.5746 90.0005 92.5746C91.1931 92.5746 92.3368 93.0534 93.1806 93.906ZM63.1805 99.9762C64.0232 100.83 64.4966 101.987 64.4966 103.193C64.4966 104.4 64.0232 105.557 63.1805 106.411L51.1805 118.551C50.7686 118.998 50.2718 119.357 49.7198 119.606C49.1678 119.855 48.5719 119.989 47.9677 119.999C47.3635 120.01 46.7633 119.898 46.203 119.669C45.6426 119.44 45.1336 119.099 44.7063 118.667C44.279 118.234 43.9421 117.719 43.7158 117.152C43.4895 116.586 43.3783 115.978 43.389 115.367C43.3997 114.756 43.5319 114.153 43.7779 113.594C44.0238 113.036 44.3784 112.533 44.8205 112.117L56.8205 99.9762C57.6643 99.1236 58.808 98.6448 60.0005 98.6448C61.1931 98.6448 62.3368 99.1236 63.1805 99.9762Z" fill="#0AD3FF"/>
<path d="M60.1802 72.6603C61.0229 73.5139 61.4962 74.671 61.4962 75.8775C61.4962 77.0839 61.0229 78.241 60.1802 79.0947L48.1802 91.2351C47.764 91.6601 47.2687 91.9975 46.7229 92.2278C46.1771 92.4581 45.5916 92.5766 45.0002 92.5766C44.4088 92.5766 43.8233 92.4581 43.2775 92.2278C42.7317 91.9975 42.2364 91.6601 41.8202 91.2351C41.4001 90.814 41.0665 90.3129 40.8389 89.7607C40.6113 89.2085 40.4941 88.6161 40.4941 88.0178C40.4941 87.4196 40.6113 86.8272 40.8389 86.275C41.0665 85.7228 41.4001 85.2217 41.8202 84.8006L53.8202 72.6603C54.6639 71.8077 55.8077 71.3288 57.0002 71.3288C58.1927 71.3288 59.3364 71.8077 60.1802 72.6603ZM80.8202 72.6603L68.8202 84.8006C68.3781 85.2174 68.0235 85.72 67.7775 86.2785C67.5316 86.837 67.3993 87.4398 67.3886 88.0511C67.378 88.6624 67.4891 89.2696 67.7155 89.8365C67.9418 90.4033 68.2787 90.9183 68.706 91.3506C69.1333 91.7829 69.6423 92.1237 70.2026 92.3527C70.7629 92.5817 71.3631 92.6941 71.9673 92.6833C72.5715 92.6726 73.1674 92.5388 73.7194 92.2899C74.2714 92.0411 74.7682 91.6823 75.1802 91.2351L87.1802 79.0947C87.6223 78.6779 87.9769 78.1753 88.2229 77.6168C88.4688 77.0583 88.6011 76.4555 88.6117 75.8442C88.6224 75.2329 88.5113 74.6257 88.2849 74.0588C88.0586 73.492 87.7217 72.977 87.2944 72.5447C86.8671 72.1124 86.3581 71.7716 85.7978 71.5426C85.2374 71.3136 84.6373 71.2012 84.0331 71.212C83.4288 71.2227 82.833 71.3565 82.281 71.6054C81.729 71.8542 81.2322 72.213 80.8202 72.6603Z" fill="#0AD3FF"/>
</svg>
