<svg width="120" height="120" viewBox="0 0 120 120" fill="none" xmlns="http://www.w3.org/2000/svg">
<path opacity="0.9" d="M85.716 96C104.652 96 120 80.832 120 62.118C120 47.286 110.358 34.68 96.93 30.09C95.022 13.164 80.49 0 62.856 0C43.92 0 28.572 15.168 28.572 33.882C28.572 38.022 29.322 41.982 30.696 45.654C29.0552 45.3351 27.3875 45.1744 25.716 45.174C11.514 45.18 0 56.556 0 70.59C0 84.624 11.514 96 25.716 96H85.716Z" fill="#E6E6E6"/>
<path opacity="0.5" d="M97.716 120C110.022 120 120 110.52 120 98.82C120 89.556 113.73 81.678 105 78.804C103.77 68.226 94.32 60 82.86 60C70.548 60 60.57 69.48 60.57 81.18C60.57 83.76 61.062 86.244 61.95 88.536C60.8815 88.3367 59.7969 88.2362 58.71 88.236C49.488 88.236 42 95.34 42 104.118C42 112.89 49.482 120 58.716 120H97.716Z" fill="#D2D2D2"/>
</svg>
