<svg width="120" height="120" viewBox="0 0 120 120" fill="none" xmlns="http://www.w3.org/2000/svg">
<path opacity="0.5" d="M85.716 95.3557C104.652 95.3557 120 80.2895 120 61.7011C120 46.9686 110.358 34.4472 96.93 29.888C95.022 13.0756 80.49 0 62.856 0C43.92 0 28.572 15.0662 28.572 33.6546C28.572 37.7668 29.322 41.7002 30.696 45.3476C29.0552 45.0307 27.3875 44.871 25.716 44.8708C11.514 44.8768 0 56.1764 0 70.1162C0 84.056 11.514 95.3557 25.716 95.3557H85.716Z" fill="#D2D2D2"/>
<path fill-rule="evenodd" clip-rule="evenodd" d="M53.1236 68.5965C53.5094 69.0413 53.8032 69.5573 53.9882 70.115C54.1732 70.6727 54.2458 71.2612 54.2018 71.8467C54.1578 72.4323 53.998 73.0035 53.7317 73.5277C53.4654 74.0519 53.0976 74.5188 52.6496 74.9019L36.1196 89.0562H49.7156C50.634 89.0559 51.5306 89.3348 52.2848 89.8554C53.039 90.376 53.6148 91.1133 53.9349 91.9684C54.2549 92.8235 54.3039 93.7554 54.0752 94.639C53.8465 95.5225 53.3511 96.3154 52.6556 96.9111L26.9396 118.914C26.492 119.298 25.9728 119.59 25.4116 119.774C24.8504 119.958 24.2581 120.031 23.6686 119.988C23.0792 119.945 22.504 119.787 21.9761 119.523C21.4481 119.259 20.9777 118.894 20.5916 118.45C20.2055 118.005 19.9113 117.489 19.7259 116.932C19.5405 116.374 19.4674 115.786 19.5109 115.201C19.5543 114.615 19.7134 114.044 19.9792 113.519C20.2449 112.995 20.612 112.528 21.0596 112.144L37.5956 97.9958H23.9996C23.0797 97.9975 22.1815 97.7192 21.4258 97.1983C20.6701 96.6774 20.0932 95.939 19.7729 95.0826C19.4526 94.2261 19.4042 93.2927 19.6342 92.4081C19.8643 91.5235 20.3617 90.7301 21.0596 90.1349L46.7756 68.1316C47.2234 67.7484 47.7429 67.4565 48.3044 67.2727C48.8659 67.089 49.4583 67.0169 50.0478 67.0606C50.6373 67.1043 51.2123 67.263 51.7401 67.5276C52.2679 67.7921 52.738 68.1514 53.1236 68.5965Z" fill="#FFBA0A"/>
<path fill-rule="evenodd" clip-rule="evenodd" d="M81.1796 71.3439C82.0223 72.182 82.4956 73.318 82.4956 74.5025C82.4956 75.687 82.0223 76.8231 81.1796 77.6612L69.1796 89.5807C68.3265 90.3702 67.1982 90.8 66.0324 90.7796C64.8666 90.7592 63.7543 90.2901 62.9298 89.4711C62.1054 88.6522 61.6331 87.5473 61.6125 86.3894C61.5919 85.2314 62.0247 84.1107 62.8196 83.2633L74.8196 71.3439C75.6633 70.5068 76.8071 70.0367 77.9996 70.0367C79.1921 70.0367 80.3358 70.5068 81.1796 71.3439ZM93.1796 92.2029C94.0223 93.041 94.4956 94.1771 94.4956 95.3616C94.4956 96.5461 94.0223 97.6822 93.1796 98.5203L81.1796 110.44C80.3265 111.229 79.1982 111.659 78.0324 111.639C76.8666 111.618 75.7543 111.149 74.9298 110.33C74.1054 109.511 73.6331 108.406 73.6125 107.248C73.592 106.09 74.0247 104.97 74.8196 104.122L86.8196 92.2029C87.6633 91.3659 88.8071 90.8957 89.9996 90.8957C91.1921 90.8957 92.3358 91.3659 93.1796 92.2029ZM69.1796 98.1627C70.0223 99.0008 70.4956 100.137 70.4956 101.321C70.4956 102.506 70.0223 103.642 69.1796 104.48L57.1796 116.399C56.3265 117.189 55.1982 117.619 54.0324 117.598C52.8666 117.578 51.7543 117.109 50.9298 116.29C50.1054 115.471 49.6331 114.366 49.6125 113.208C49.5919 112.05 50.0247 110.929 50.8196 110.082L62.8196 98.1627C63.6633 97.3256 64.8071 96.8555 65.9996 96.8555C67.1921 96.8555 68.3358 97.3256 69.1796 98.1627Z" fill="#0AD3FF"/>
</svg>
