<svg width="120" height="120" viewBox="0 0 120 120" fill="none" xmlns="http://www.w3.org/2000/svg">
<path opacity="0.5" d="M85.2874 96.2848C103.908 96.2848 119 81.3088 119 62.8317C119 48.1874 109.519 35.741 96.3145 31.2091C94.4383 14.4974 80.1485 1.5 62.8084 1.5C44.188 1.5 29.0958 16.476 29.0958 34.9531C29.0958 39.0407 29.8333 42.9506 31.1844 46.5761C29.5709 46.2611 27.9311 46.1024 26.2874 46.1022C12.3221 46.1081 1 57.3401 1 71.1965C1 85.0528 12.3221 96.2848 26.2874 96.2848H85.2874Z" fill="#D2D2D2"/>
<path fill-rule="evenodd" clip-rule="evenodd" d="M59.9999 68.1456C61.1735 68.1456 62.299 68.6137 63.1289 69.4469C63.9587 70.2801 64.4249 71.4102 64.4249 72.5886V85.4023L75.4815 78.9984C75.985 78.7021 76.5418 78.5087 77.12 78.4293C77.6982 78.3499 78.2863 78.3861 78.8505 78.5359C79.4147 78.6857 79.9438 78.946 80.4074 79.302C80.8709 79.6579 81.2598 80.1024 81.5516 80.6098C81.8434 81.1172 82.0323 81.6776 82.1075 82.2587C82.1828 82.8397 82.1428 83.43 81.9899 83.9955C81.837 84.561 81.5742 85.0905 81.2166 85.5536C80.8591 86.0167 80.4138 86.4042 79.9065 86.6938L68.8499 93.0977L79.9183 99.5134C80.9354 100.103 81.6778 101.073 81.9821 102.212C82.2863 103.351 82.1276 104.564 81.5408 105.586C80.954 106.607 79.9872 107.352 78.8531 107.658C77.719 107.963 76.5104 107.804 75.4933 107.215L64.4249 100.787V114.057C64.4249 115.235 63.9587 116.365 63.1289 117.199C62.299 118.032 61.1735 118.5 59.9999 118.5C58.8264 118.5 57.7008 118.032 56.871 117.199C56.0411 116.365 55.5749 115.235 55.5749 114.057V100.793L44.5065 107.209C43.4907 107.789 42.2878 107.942 41.1601 107.634C40.0324 107.327 39.0716 106.584 38.4873 105.568C37.9031 104.552 37.7428 103.345 38.0415 102.211C38.3401 101.076 39.0735 100.107 40.0815 99.5134L51.1499 93.0977L40.0992 86.6938C39.0821 86.1046 38.3398 85.1339 38.0355 83.9951C37.7312 82.8564 37.89 81.6429 38.4767 80.6216C39.0635 79.6004 40.0303 78.855 41.1645 78.5495C42.2986 78.244 43.5071 78.4033 44.5242 78.9925L55.5749 85.4023V72.5886C55.5749 71.4102 56.0411 70.2801 56.871 69.4469C57.7008 68.6137 58.8264 68.1456 59.9999 68.1456Z" fill="#B0EEFC"/>
</svg>
