<svg width="120" height="120" viewBox="0 0 120 120" fill="none" xmlns="http://www.w3.org/2000/svg">
<path d="M30 71.6938C46.5685 71.6938 60 58.1071 60 41.3469C60 24.5868 46.5685 11.0001 30 11.0001C13.4315 11.0001 0 24.5868 0 41.3469C0 58.1071 13.4315 71.6938 30 71.6938Z" fill="#FFBA0A"/>
<path opacity="0.9" d="M85.716 108.11C104.652 108.11 120 92.7666 120 73.8363C120 58.8328 110.358 46.081 96.93 41.4379C95.022 24.3162 80.49 11 62.856 11C43.92 11 28.572 26.3434 28.572 45.2738C28.572 49.4616 29.322 53.4674 30.696 57.1819C29.0552 56.8591 27.3875 56.6965 25.716 56.6963C11.514 56.7024 0 68.2099 0 82.4062C0 96.6025 11.514 108.11 25.716 108.11H85.716Z" fill="#E9E9E9"/>
</svg>
