<svg width="24" height="24" viewBox="0 0 24 24" fill="none" xmlns="http://www.w3.org/2000/svg">
<path d="M12 21C9.48333 21 7.35433 20.129 5.613 18.387C3.87167 16.645 3.00067 14.516 3 12C3 9.69998 3.75 7.70398 5.25 6.01198C6.75 4.31998 8.66667 3.33265 11 3.04998C11.2167 3.01665 11.4083 3.04598 11.575 3.13798C11.7417 3.22998 11.875 3.35065 11.975 3.49998C12.075 3.64931 12.1293 3.82431 12.138 4.02498C12.1467 4.22565 12.084 4.41731 11.95 4.59998C11.6667 5.03331 11.454 5.49165 11.312 5.97498C11.17 6.45831 11.0993 6.96665 11.1 7.49998C11.1 8.99998 11.625 10.275 12.675 11.325C13.725 12.375 15 12.9 16.5 12.9C17.0167 12.9 17.5293 12.825 18.038 12.675C18.5467 12.525 19.0007 12.3166 19.4 12.05C19.5833 11.9333 19.771 11.8793 19.963 11.888C20.155 11.8966 20.3257 11.9423 20.475 12.025C20.6417 12.1083 20.771 12.2333 20.863 12.4C20.955 12.5666 20.984 12.7666 20.95 13C20.7167 15.3 19.7377 17.2083 18.013 18.725C16.2883 20.2416 14.284 21 12 21ZM12 19C13.4667 19 14.7833 18.5956 15.95 17.787C17.1167 16.9783 17.9667 15.9243 18.5 14.625C18.1667 14.7083 17.8333 14.775 17.5 14.825C17.1667 14.875 16.8333 14.9 16.5 14.9C14.45 14.9 12.704 14.179 11.262 12.737C9.82 11.295 9.09933 9.54931 9.1 7.49998C9.1 7.16665 9.125 6.83331 9.175 6.49998C9.225 6.16665 9.29167 5.83331 9.375 5.49998C8.075 6.03331 7.02067 6.88331 6.212 8.04998C5.40333 9.21665 4.99933 10.5333 5 12C5 13.9333 5.68333 15.5833 7.05 16.95C8.41667 18.3166 10.0667 19 12 19Z" fill="black"/>
</svg>
