<svg width="24" height="24" viewBox="0 0 24 24" fill="none" xmlns="http://www.w3.org/2000/svg">
<path d="M12 15C12.8333 15 13.5417 14.7083 14.125 14.125C14.7083 13.5417 15 12.8333 15 12C15 11.1667 14.7083 10.4583 14.125 9.875C13.5417 9.29167 12.8333 9 12 9C11.1667 9 10.4583 9.29167 9.875 9.875C9.29167 10.4583 9 11.1667 9 12C9 12.8333 9.29167 13.5417 9.875 14.125C10.4583 14.7083 11.1667 15 12 15ZM12 17C10.6167 17 9.43767 16.5123 8.463 15.537C7.48834 14.5617 7.00067 13.3827 7 12C6.99934 10.6173 7.487 9.43834 8.463 8.463C9.439 7.48767 10.618 7 12 7C13.382 7 14.5613 7.48767 15.538 8.463C16.5147 9.43834 17.002 10.6173 17 12C16.998 13.3827 16.5103 14.562 15.537 15.538C14.5637 16.514 13.3847 17.0013 12 17ZM2 13C1.71667 13 1.47934 12.904 1.288 12.712C1.09667 12.52 1.00067 12.2827 1 12C0.999337 11.7173 1.09534 11.48 1.288 11.288C1.48067 11.096 1.718 11 2 11H4C4.28334 11 4.521 11.096 4.713 11.288C4.905 11.48 5.00067 11.7173 5 12C4.99934 12.2827 4.90334 12.5203 4.712 12.713C4.52067 12.9057 4.28334 13.0013 4 13H2ZM20 13C19.7167 13 19.4793 12.904 19.288 12.712C19.0967 12.52 19.0007 12.2827 19 12C18.9993 11.7173 19.0953 11.48 19.288 11.288C19.4807 11.096 19.718 11 20 11H22C22.2833 11 22.521 11.096 22.713 11.288C22.905 11.48 23.0007 11.7173 23 12C22.9993 12.2827 22.9033 12.5203 22.712 12.713C22.5207 12.9057 22.2833 13.0013 22 13H20ZM12 5C11.7167 5 11.4793 4.904 11.288 4.712C11.0967 4.52 11.0007 4.28267 11 4V2C11 1.71667 11.096 1.47934 11.288 1.288C11.48 1.09667 11.7173 1.00067 12 1C12.2827 0.999337 12.5203 1.09534 12.713 1.288C12.9057 1.48067 13.0013 1.718 13 2V4C13 4.28334 12.904 4.521 12.712 4.713C12.52 4.905 12.2827 5.00067 12 5ZM12 23C11.7167 23 11.4793 22.904 11.288 22.712C11.0967 22.52 11.0007 22.2827 11 22V20C11 19.7167 11.096 19.4793 11.288 19.288C11.48 19.0967 11.7173 19.0007 12 19C12.2827 18.9993 12.5203 19.0953 12.713 19.288C12.9057 19.4807 13.0013 19.718 13 20V22C13 22.2833 12.904 22.521 12.712 22.713C12.52 22.905 12.2827 23.0007 12 23ZM5.65 7.05L4.575 6C4.375 5.81667 4.279 5.58334 4.287 5.3C4.295 5.01667 4.391 4.775 4.575 4.575C4.775 4.375 5.01667 4.275 5.3 4.275C5.58334 4.275 5.81667 4.375 6 4.575L7.05 5.65C7.23334 5.85 7.325 6.08334 7.325 6.35C7.325 6.61667 7.23334 6.85 7.05 7.05C6.86667 7.25 6.63767 7.346 6.363 7.338C6.08834 7.33 5.85067 7.234 5.65 7.05ZM18 19.425L16.95 18.35C16.7667 18.15 16.675 17.9127 16.675 17.638C16.675 17.3633 16.7667 17.134 16.95 16.95C17.1333 16.75 17.3627 16.6543 17.638 16.663C17.9133 16.6717 18.1507 16.7673 18.35 16.95L19.425 18C19.625 18.1833 19.721 18.4167 19.713 18.7C19.705 18.9833 19.609 19.225 19.425 19.425C19.225 19.625 18.9833 19.725 18.7 19.725C18.4167 19.725 18.1833 19.625 18 19.425ZM16.95 7.05C16.75 6.86667 16.654 6.63767 16.662 6.363C16.67 6.08834 16.766 5.85067 16.95 5.65L18 4.575C18.1833 4.375 18.4167 4.279 18.7 4.287C18.9833 4.295 19.225 4.391 19.425 4.575C19.625 4.775 19.725 5.01667 19.725 5.3C19.725 5.58334 19.625 5.81667 19.425 6L18.35 7.05C18.15 7.23334 17.9167 7.325 17.65 7.325C17.3833 7.325 17.15 7.23334 16.95 7.05ZM4.575 19.425C4.375 19.225 4.275 18.9833 4.275 18.7C4.275 18.4167 4.375 18.1833 4.575 18L5.65 16.95C5.85 16.7667 6.08734 16.675 6.362 16.675C6.63667 16.675 6.866 16.7667 7.05 16.95C7.25 17.1333 7.346 17.3627 7.338 17.638C7.33 17.9133 7.234 18.1507 7.05 18.35L6 19.425C5.81667 19.625 5.58334 19.721 5.3 19.713C5.01667 19.705 4.775 19.609 4.575 19.425Z" fill="white"/>
</svg>
