<svg width="120" height="120" viewBox="0 0 120 120" fill="none" xmlns="http://www.w3.org/2000/svg">
<path opacity="0.5" d="M85.716 95.9992C104.652 95.9992 120 80.8313 120 62.1175C120 47.2856 110.358 34.6797 96.93 30.0897C95.022 13.1639 80.49 0 62.856 0C43.92 0 28.572 15.1679 28.572 33.8817C28.572 38.0217 29.322 41.9816 30.696 45.6536C29.0552 45.3347 27.3875 45.174 25.716 45.1736C11.514 45.1796 0 56.5555 0 70.5894C0 84.6233 11.514 95.9992 25.716 95.9992H85.716Z" fill="#D2D2D2"/>
<path fill-rule="evenodd" clip-rule="evenodd" d="M76.2696 68.5965C76.6554 69.0413 76.9492 69.5573 77.1342 70.115C77.3192 70.6727 77.3918 71.2612 77.3478 71.8467C77.3038 72.4323 77.144 73.0035 76.8777 73.5277C76.6114 74.0519 76.2436 74.5188 75.7956 74.9019L59.2656 89.0562H72.8616C73.78 89.0559 74.6765 89.3348 75.4308 89.8554C76.185 90.376 76.7608 91.1133 77.0809 91.9684C77.4009 92.8235 77.4499 93.7554 77.2212 94.639C76.9925 95.5225 76.4971 96.3154 75.8016 96.9111L50.0856 118.914C49.638 119.298 49.1188 119.59 48.5576 119.774C47.9964 119.958 47.4041 120.031 46.8146 119.988C46.2252 119.945 45.65 119.787 45.1221 119.523C44.5941 119.259 44.1236 118.894 43.7376 118.45C43.3515 118.005 43.0573 117.489 42.8719 116.932C42.6865 116.374 42.6134 115.786 42.6568 115.201C42.7003 114.615 42.8594 114.044 43.1252 113.519C43.3909 112.995 43.758 112.528 44.2056 112.144L60.7416 97.9958H47.1456C46.2257 97.9975 45.3275 97.7192 44.5718 97.1983C43.8161 96.6774 43.2392 95.939 42.9189 95.0826C42.5986 94.2261 42.5502 93.2927 42.7802 92.4081C43.0103 91.5235 43.5077 90.7301 44.2056 90.1349L69.9216 68.1316C70.3694 67.7484 70.8889 67.4565 71.4504 67.2727C72.0118 67.089 72.6043 67.0169 73.1938 67.0606C73.7833 67.1043 74.3583 67.263 74.8861 67.5276C75.4139 67.7921 75.884 68.1514 76.2696 68.5965Z" fill="#FFBA0A"/>
</svg>
