<svg width="121" height="98" viewBox="0 0 121 98" fill="none" xmlns="http://www.w3.org/2000/svg">
<path d="M30.6249 60.6938C47.1934 60.6938 60.6249 47.1071 60.6249 30.3469C60.6249 13.5868 47.1934 6.10352e-05 30.6249 6.10352e-05C14.0563 6.10352e-05 0.624878 13.5868 0.624878 30.3469C0.624878 47.1071 14.0563 60.6938 30.6249 60.6938Z" fill="#FFBA0A"/>
<path opacity="0.9" d="M86.3409 97.11C105.277 97.11 120.625 81.7666 120.625 62.8363C120.625 47.8328 110.983 35.081 97.5549 30.4379C95.6469 13.3162 81.1149 0 63.4809 0C44.5449 0 29.1969 15.3434 29.1969 34.2738C29.1969 38.4616 29.9469 42.4674 31.3209 46.1819C29.6801 45.8591 28.0124 45.6965 26.3409 45.6963C12.1389 45.7024 0.624878 57.2099 0.624878 71.4062C0.624878 85.6025 12.1389 97.11 26.3409 97.11H86.3409Z" fill="#E9E9E9"/>
</svg>
